<mxfile host="app.diagrams.net" agent="Mozilla/5.0 (Macintosh; Intel Mac OS X 10_15_7) AppleWebKit/537.36 (KHTML, like Gecko) Chrome/131.0.0.0 Safari/537.36" version="25.0.3">
  <diagram name="Page-1" id="6BBCqsP-SI1j8QTKTdZa">
    <mxGraphModel dx="2051" dy="746" grid="1" gridSize="10" guides="1" tooltips="1" connect="1" arrows="1" fold="1" page="1" pageScale="1" pageWidth="827" pageHeight="1169" background="#1A1A1A" math="0" shadow="0">
      <root>
        <mxCell id="0" />
        <mxCell id="1" parent="0" />
        <mxCell id="O-CGYVzxH5412GR154It-1" style="edgeStyle=orthogonalEdgeStyle;rounded=0;orthogonalLoop=1;jettySize=auto;html=1;entryX=0;entryY=0.5;entryDx=0;entryDy=0;fillColor=#d5e8d4;strokeColor=#82b366;strokeWidth=5;" edge="1" parent="1" target="O-CGYVzxH5412GR154It-4">
          <mxGeometry relative="1" as="geometry">
            <mxPoint x="240" y="270" as="sourcePoint" />
          </mxGeometry>
        </mxCell>
        <mxCell id="O-CGYVzxH5412GR154It-3" style="edgeStyle=orthogonalEdgeStyle;rounded=0;orthogonalLoop=1;jettySize=auto;html=1;entryX=0;entryY=0.5;entryDx=0;entryDy=0;fillColor=#d5e8d4;strokeColor=#82b366;strokeWidth=5;" edge="1" parent="1" source="O-CGYVzxH5412GR154It-4" target="O-CGYVzxH5412GR154It-5">
          <mxGeometry relative="1" as="geometry" />
        </mxCell>
        <mxCell id="O-CGYVzxH5412GR154It-4" value="Divide Teams Transcript into &#xa;Smaller Segments" style="shape=image;verticalLabelPosition=bottom;labelBackgroundColor=none;verticalAlign=top;aspect=fixed;imageAspect=0;image=data:image/jpeg,/9j/4AAQSkZJRgABAQAAAQABAAD/2wCEAAkGBxAPDw0NDg4TDQ8NEg4ODw8NDw8QDQ8QFRYWGBURFRYYHyggGBomHhUXIz0hJy0rLi8uFx8zODMsNygtLisBCgoKDg0OGhAQGjcmHyUtLSsrMC0tLS0tLS0tKy0rLS0vLSstKystKy0tLS0tLS0tKystKy0tLSsrLS0rLS0tLf/AABEIAOsA1gMBEQACEQEDEQH/xAAbAAADAAMBAQAAAAAAAAAAAAAAAQIEBQcDBv/EAEsQAAIBAwADCwULCQgDAAAAAAABAgMEEQUhMQYSEzJBUVJhcYGRBxSTodEVFiIzQlNydLGz0xcjJDVUgpTB0mJzkqKjsuHxNENj/8QAGgEBAQADAQEAAAAAAAAAAAAAAAECBAUDBv/EADcRAQABAgIFCgYCAgIDAAAAAAABAgMEERIUITFRBRMyQVJhcYGR8BUiM6Gx0ULBNOFDciNT8f/aAAwDAQACEQMRAD8A7iAAAAAAAAB53FeFOMqlSShCOuUptKK72WImZyhJmIjOXymkt3tGDcbenKu+lJ8HT7srL8EbdGDqnpTk1K8ZTHRjN89d7t72fElCiuTg6ab8Z5NinCW437WvVi7k7tjVV9P3k+Nd1f3KkoLwjg9Ys24/i8pvXJ31MKpeVZcatUl9KpN/azLRpjqY6dU9bwlJva89pUJVGtkmuxtDIzesNI148W4qx+jVqR+xmOhTPUy06uP3ZdDdPfU+Ld1P32qn+9MwmxbnqZxeuR/JuLDyh3UGlWhTuI8urgqnitXqPKrCUTu2PanF1xv2vt9AbqLa9+DTk4VcZdGriNTrceSS7O/Bp3LFVvfubdu9Tc3b27PF7AAAAAAAAAAAAAAAAAAAmc1FOUnhRTbb2JLaxG03OS7pNOzvKreWqMG+Cp8iXTa6T9WcHXs2Ytx39bj3r03J7upp2z2eT0qW1SMd/KlOMOlKElDxawYxVE7IllNMxGcwx2zJilsCWyKlsCWwE2FSwCM3FqUW4yi1KMotqUWtjTWxkHVNwm6p3cXb12vOaSypalw0F8rHJJcq68rlS5uIs6E6UbnSw97TjRq3vrzWbIAAAAAAAAAAAAAAAAA0e7S4dOwuGts1Gn3TklL1NnvhozuQ8MTOVqXJ2dZyX33k/wBB0+DV7UipzlKSo75ZUIxeHJLpNp6+ZdbOfi7s56EeboYS1GWnPk+1azqetPU09hpN1zHd9oOFtVp1qMd5Sr77MFqjCosbOZNPZyYZ08LdmuMp3w5mKtRROcbpfJtmy1ktgS2BLYVLATAlsg99G38ratRuYcajJTx0l8qPY1ld5jVTFVM0yypq0ZiqOp3ylUU4xnF5jNKUXzprKZxpjJ2YWAAAAAAAAAAAAAAAAB8z5Qn+gv8AvKX2mzhPqNbF/TcwbOo5bpnk90hCpaKhn85bualHlcZScoy7NbXcczF0TFefF08JXE0aPB9Sarac98p2kYylQtYtOVPfVamPktrEY9uMvw5zfwdExE1NDGVxMxS+EbN1pJbAlsKTAlgS2QS2BLYV3bctLNhYN7fNrb7uJyLv1KvGXWs/Tp8IbQ83oAAAAAAAAAAAAAAAA+Z8of8A4L/vKX2s2cJ9RrYv6blzZ1HLelrdVKM1UpTlTnHZKDw+zrXUY1UxVGUsqappnOG3q7s7+Ud5w+95HKNOmpvvxq7sHjGGtxOeT2nE3JjLNoJzbblJuTk225NuTb2tt7We7webYEthSYEtgS2QJsCWwqWwO7blP1fo/wCrW33cTkXvqVeMutZ+nT4Q2p5vQAAAAAAAAAAAAAAAB85u9oTqWTjTpyqy4Sm97ThKcsZevC1mxhZiLmctfFRM29jm70Rdfslx/D1vYdLnKO1HrDm83X2Z9JS9D3X7Hcfw9b+knOUdqPWDm6+zPpKXoe7/AGO4/h639I5yjtR6wvN19mfSUvQ93+x3H8NW/pHOUdqPWDm6+zPpJPQ13+x3H8NW/pHOUdqPWDm6+zPpKJ6Iukm3aXCSTbbt6ySS2tve6hzlHGPU0K+E+ksBszYk2QS2BLYVLYEtgd43Kfq/R/1a2+7ici99Srxl1rP06fCG1PN6AAAAAAAAAAAmc1FOUmopa228JLrY3jTXW6yxpvDuFN//ACjKovGKa9Z704a5PU8KsTbjrYr3c2XSqeikZapcY63bL39WXSqeikNUuGt2y9/dj0qnopDVLhrdse/ux6VT0Uhqlw1u2Xv8selU9FIarcNatj3+2PSqeikNVuGtWy9/1j0qnopDVbhrVsvf/YdKp6KQ1W4a1beGkN3VjOjWpxlU306dSEc0pYy4tItOGuRMSlWJtzEw5WdFzktgS2FS2BLYEtgd53KPGjtHvmtbb7uJx78xFdUzxl1rG23T4QzfPYdfgcz4nY7/AEbPM1Dz2HX4D4nY7/Q5mo1eQ52u5ljlLDz1/aTmantCopbGn2G3bu0XIzonN5zTMb1HogAAADT7otP07KCcvh1Z54Oknhv+03yR6z2s2ZuT3PG9ei3He5npbTFe6lvq1RyWcxpx1Uo9kf5vL6zp27VNEfLDl3LtVyfmlr2ejBLYEtgS2BLZFS2BLYCbCpYEtkEtgJsKlsCWwJbAkg7xuX/Vtj9Vt/u4nFxf8/N18P0KfCEnxrqAAAIzaeU8PqLRXVRVpUzlJMROyWytLjfrXqktvX1n0eCxkX6cp6Ub/wBtO7b0J7mQbzyAGNpG8jb0qlepxacXJ87fJFdbeF3mVFM1VRTDGuqKaZqlx7SV9O4qzr1XmU3nqiuSK6kdmiiKI0Ycauua6tKWKzJilsCWwJbAlsipbATYEsKlgJgS2QS2FS2BLYEtgSyAA7xuX/Vtj9Vt/u4nFxf8/N18P0KfCEnxrqFkgRFLJFVRq7ySkuTb1rlPWxemzciuOr8dbGunSjJuk861yn18TExnDnbjKPi/KVetU6Fsn8Y5VZ9kdUU+9t/um7g6Ns1NLG17Ipc/Z0HPJsCWwJbAlsipbAlsCWFSwE2BLZBLYVLYEtgS2BLIAAA7zuaWNHWKepq1t89X5uJxcXP1J8XXw8fLT4Q8z4x1SyQLJFTkgWTFW30fUzTX9nMfYfUcmXdPDxHDZ+vs0b9OVbJOg8XLd3tzv76pHkowp0l4b9/7/UdTC05W473KxVWdzwfONmy10tgS2BLZFS2BLYEthSYEtgS2QS2BLYUmwJbAlsgQABk6NspXNajbQ41ecaaxyJ7ZdiWX3Eqq0YmZZU06UxTHW77XSp0t5HUklTiurGMeB81yhd0LFXfs9f8ATuWac6oazJ8s3yyQLJFLJAiKz9Ez1zj2P2/yO1yNc+aujwn9/wBNbExsiWyO+03F9OVt/dXU9ua1XHYpNL1JHZtRlREdzjXZzrme9gNno80tgS2RUtgS2AmwqWBLATZBLYEthUtgS2BLYCIAAS5NudSS2t8wHWPJ3uTlarzy5jva9SO9p03to03tb5pv1LVytHPxF7S+Wnc6GHs6PzVb30l9X30sLZH1vnPkOUcVF25o07o+8uvZo0Yzli5Oc9iyRU5IpECMVZWjZYqrrTXqz/I6HJVejiYjjEx/f9PHERnQ3J9W57hdae+lKXScn4vJ3I2Q4cznLzbKiWyKlsCWwJbCpYCYGdo3Ql1da7e3nUj08KNP/HLCfieddyijpSzot119GG8p+Tq/ksuVCHVKrUz/AJYM8dbt9721S53e/I35N775y29LW/DGt2+/35rqlzu9+RPybX3zlt6Wt+GTW7ff78zVLnd78i/Jrf8Azlt6Wt+GNbt9/vzNUud3vyJ+TS/+ctvS1vwxrdvv9+Zqtzu9+Rfkzv8A5y29LW/DGt2+/wB+Zqtzu9f9F+TO/wDnLb0tb8Ma3b7/AH5mq3O71/0yLXyX3Lf565o01z0lUqvwaiScXT1QyjCVdc+/s+x3P7jbSxaqpOtWj/7q+G4fQWyPbt6zUvYmqqNs5Q2bWHponZtls7u8zmMNnLLn7D5zG8o6UTbtbuuf1+3RtWcttTBycZslkgRFLJM1IgRFe1m/zlPtXrNnA1ZYmjxYXY+SW+Ps3LcJqx3spR6La8GdyJ2OHMZTk82wJbAlsCWwJYUJNtJJttpJJNtt7ElysDpG5TcJCCjXvoqpUeHGg8OlT+nyTl1bO3ac+9ipnZR6t+zhojbX6PsqlzCHwVrxqSjsXUca/j7Vqct89zoUWqpeDv3yRXezQnlarqp+715iOI8+l0V6yfFbnZheYjiPPpdFesfFbnZg5iOI8+l0V6x8VudmDmI4jz+XRXrHxa52YOYjiXn8uivWT4tc7MGrxxHuhLor1j4vc7MLq8cUy0hLkSXiYVcrXp3RELGHpY1WtKXGbf2eBoXcRcu9OrP8ej1popp3Q88ngzLJFIgRFIxUskCyRXpafGU/pR+02cHtxFHjDC70J8H0J9q5TiWnKW8urqGze1q2OzfNr1YOzbnOiJ7nGuRlXMd7AbM2CWwJbATCpYH3/k00ApZ0hVjnDlC3T2ZWqVX7Yrsl1Gji7v8ACPNu4W1/OfJ9veXHyI97/kfMcoY2YnmqJ8Z/r9utat/ylhHGbIAAAAAWSKWSBZIqckCyYqRFLJFIgRFLJAskUskVkaOWasOrL8Ezd5Mp0sVR5z9peV+crct+fZOW5N5QLbg7+q+StGnVXhvX64M6mFqztx3OXiqcrk975ts2GulsCWFSwBRbajFZlJpRXO3qSIO72dtG2t6dGGyjTjBdbSxl9r+04GKv6FFVz33O3aojZTDBPkpnPbLoggAABZARipZIpZIFkilkgRFIikQIilkxUskUskE5IrY6FhmU5dFY73/0dvkO3ndqr4Rl6/8AxqYur5YhuD6ZoPg/KlZfBtrlLiuVGf73wo93wZeJu4OrbNLSxlOyKnPGzfaCWwpMCWwMvQqzdWafLcWy/wBSJhX0J8JZUdKPGPy7jf8AE70fLcpT/wCCfGHes9JrT51uAAAWSBEUskUskCyRU5IpECMVBFLJBOSKWSKWSBZIpEVvtFUt7ST5Z/Cffs9WD6/kmxzeGiZ31bf19snMxNelX4bGYdNrsDTujVdW1a3erhI/Bk/kzWuMu5pGduvQqiphco06ZpcRr0pU5Tpzi4zg3CUXtUk8NHYiYmM4ceYmJyl5MolgS2QZmhH+l2X1i2+8iY3OhPhP4Z0dKPGPy7jf8TvR8tyn9Dzh3rPSa4+dbYARFLJBOTFSyRSyQIilkmakQIilkilkgWTFSyRSIERXraUOEnGHI9b6o8ps4TDziL1Nv18Ov3xYXa9CmZfSpH3MRlshxwUAHxu7jck7nN1bJecJJThqSrJbGn01s612I28Pf0Plq3NXEWNL5qd/5cwqwlCUoTi4Si8SjNOMovmaetM6ETnthzp2bHm2BLYGXoN/pdl9YtvvImNzoT4T+GdHTjxj8u53/E70fLcp/Q84d6z0mtyfONsiKWSKWSBZIpZIpECIpGKlkgWSKWSKnJAskUiKRBUIttJLLexLaZUUVV1RTTGcykzERnLfaOs+Cjl8eW3q6j6/k3A6tRnV0p393c5l+9zk7NzLOk8AAAAGu0roO2u1+kUI1GlhT1xqJcynHDS7zOi5VR0ZYV26a+lDQVvJzZSeVOvTXNGpBr/NFs94xdfc8JwlHe8/ya2fz1z/AI6P4Zdcr4R7801OjjP2/T0tPJ3aUqlKtGtcOVKdOrFSnR3rlCSkk8Q2ajGcVXMTGULGEoiYnOffk+n0hxO9HF5U+h5w6FjpNZk+cbhZIqckCyTNSMVOCy4rnaRlbpiqummeuYj7pM5RMtn7mQ55eK9h9D8Gsdqft+mnrNXCB7mQ6UvGPsJ8Gsdqft+l1qvhBe5cOlLxj7B8Fsdqft+jWq+ED3Lh0peMfYT4LY7U+sfo1qvhBe5UOlLxj7B8Esdqr1j9GtV8IHuVT6UvGPsJ8Esdqr1j9LrdfCC9yafSn4x9g+B2O1V6x+jW6+ED3Ip9KfjH2E+B2O1V6x+jW6+Ee/Me5FPpT8Y+wfAsP2qvWP0a3Xwj35nHRNPnk+1r+SMqeRMPG+Znzj+ognF19zKoW8IcSKXXyvvOhYwtmxGVunL8+u94V3Kq+lL1NhgAAAAAAAAAADF0jxO9HO5U+h5w9rHTavJ803SyRSyQIikRSTxrW1CKpic4Mnr51U6b8TY17EduWHNUcC87qdN+JNexHbleao4F53U6b8Sa/ie3K8zRwLzyp05eJNfxPbk5mjgXnlT5yXiTX8T25XmaOBeeVPnJeJNfxP8A7JOZt8G+tJN06betuMW3zvB9fg6pqw9FVU7Zpj8OZdiIrmI4vU2GAAAAAAAAAAAAAAAADF0j8X3o5vKv+P5w9rHTarJ803k5IpECMVBFLJBOSKWSKIpt4Sy3sS1timmap0aYzkmYjbL2lY1Us8G+5pvw2m3VydiojOaJ+34ic3nF+3nlmxmaMvYiD6Wy+KpfQj9h9zgf8a3/ANY/DkXfqVeMvY2nmAAAAAAAAAAAAAAAAxdJfF96Obyr/jz4w98P02oPmG8WSZqRAiKWSKWSBZMVLJFbjQ9FKG/5Z518yTxj1H1HI2Hpps8711Z+kTk5+KrmatHg2B2Wq1GmqCTjUWrfapdb5GfNcuYemmabtPXsn+vfg38JXMxNMtWcFuPpbP4ql9CH2I+5wP8AjW/+sfhyLvTq8ZextPMAAAAAAAAAAAAAAAB5XNPfwlHla1dvIa+Ks89Zqojr3eO+GdurRqiWiZ8bOze6ZGKlkgWSKWSKnJAskUiK2+h7lb3gm8NNuPWnrPpeRcXTNvmKp2xu74nb6tDFW5z04bM7rTaXTFypNQi8qOW2tmeY+W5ZxdN2qLVE5xTv8f8ATo4W3NMaU9bBpU3OUYLbJ4/5OTZtVXa4t0752e/De2aqopiZl9PGOEkti1I+9ppimIiOpxpnOczMkAAAAAAAAAAAAAAAAAGvv7LOZwWv5UefrXWcTlHk6a5m7ajb1xx747/z479qxey+Wpq2fOy3U5IpZIpZIpZMQiKQAB6OvNrDnJrmcng9pxF6Y0ZrnLxljFFMTnkiEW2kllvYltPOiiquqKaYzmVmYiM5bzR1jwa30tc34RXMfWcm8navGnX0p+0cP37z51+/p7I3M46rWAAAAAAAAAAAAAAAAAAAAY9xZwqa2sPpLU/+TSxOAs4jbVGU8Y3/AO/N6271VG5rq2i5ritTXgziXuRr1O23OlHpP6+7bpxVM79jDq0ZR40Wutp48TmXbF2106Zjy2eu5sU101bpeWTwzZggQATMe1O1qS4sG+vGF4s2rWDxFzoUT+PvOUMKrtFO+WbQ0RJ8eSiuaOt+PIdSxyHcnbdqy8Ns/r8tavFxHRhsre2hTXwVjne2T7zu4fCWcPGVuPPr9WpXdqr3y9jZeYAAAAAAAAAAAAAAAAAAAAAAAAA850IS2wi+2KZ4V4azX06InxiGcXKo3S83Y0vm0eM8nYWf+OGXP3OIVlS+bj3rJY5Pwsf8cehz1zi9YUox4sVHsSRsUWbdvoUxHhGTCa6p3ys9GIAAAAAAAAAAAAAAAAAAAAAAAAAAAAAAAAAAAAAAAAAAAAAAAAAAAAAAAAAAAAyAt8BO/AXCAHCALhADhAHwgBwgFb8B74B5AAAAAAAAAAAAAAAAAAABMCGBLAhgJsBALIBkBgNANAWgKQFoBgAAAAAAAAf/2Q==;fontColor=#FFFFFF;" vertex="1" parent="1">
          <mxGeometry x="480" y="210" width="109.31" height="120" as="geometry" />
        </mxCell>
        <mxCell id="O-CGYVzxH5412GR154It-5" value="Summarise Each Chunk Using OpenAI" style="shape=image;verticalLabelPosition=bottom;labelBackgroundColor=none;verticalAlign=top;aspect=fixed;imageAspect=0;image=data:image/png,iVBORw0KGgoAAAANSUhEUgAAAN8AAADiCAMAAAD5w+JtAAAAflBMVEX///8AAADPz8/n5+fCwsLGxsZ/f38UFBT09PTW1tbb29v7+/v8/Pzv7+/4+Pje3t6YmJg1NTW8vLysrKyhoaFcXFxsbGzp6em2trZGRkZ1dXVlZWUaGhpSUlKIiIh9fX2QkJA/Pz8jIyMxMTEqKipPT0+kpKQNDQ0YGBhYWFgY7+T7AAAQHklEQVR4nNVd2ULqShAUEBSPILsiHk1Q8fr/P3hV1tRU9/QsIZ56hGyVzPQ+PRcXdeH25nLWW72X64/Wx9Xrcv4yemgParvbedGZPq5bFPNRu+mHS0X3hVM74HP6737H9qOH3BbL6Z+mnzQCf2ZXJnY/eLxr+nEDMejZyW0/4r80Fa99s46h/GcYFhHsvvG30/STW3AZye4bz00/vBfDeQK9L/zyQdpNY/eFXtMUNIRKTYb1fdMsJAzHGeh94bJpIhx3edh9YdQ0FQbj1PuwHLRomoyLB/2J56PJzd6SHnba0xd9LH82yoVgqjzsakoVd/dZ+Zbv5yagQ6b3OVFOu3v2Exzc9dvtbrt/N7g9AxGOifSUz17vbiIN1Pl1d/a4rP42XowuG1AffeERR6Y33i7Fj8ix2pzXUB3wx3gxu62XJqF6iqvnfp2MqqDhlXGQyyrPQ5ni6EyRjRW7e6iKvnsKZ9hancMap6LzJvw6iwiCrbKbn1AVHXbXqIBRnFtc1jwRiXiPs64ipuAW8zrn4cy930vMdTzmnY767HGiGmIc1P5rCr1W67UuhehGIx7DLzKgEjgMm/zcLpjhMg+/yCidXdyN/SjxLm/BlxBN11D8l98wdV3aUFF257yhBGTX9o5uCIycDA0JmPGqN5ptNrNRb+UVQporFoE2Xj9Q8RHdUsGy6MJ4uL8sSu2MaT5yF0R4Bp3d1fNLi0vBCBpOFHGbU4w6ui9keHTeNXLlg3ry7VSM3mT8gmgvlvZTb9VA8NxgUvb/CifnC57ile2GrhaMar0bHcebJT8/wnWhQN3+13pi+01htw5weIRMVRZzu/OAE8j4+QZqgilQPtA86ms4myqGE6K3xrZzVSfvZRj6KI6K+kaECXyCCf8AusTbQfWCljFFBsOSXClez3dEwWc4ua/F5D9iBR+zga7jLtWWhLJlTFyrAZYEF5X4H1HpCzUO6xV7qhe0iHzhW2zcC4aP0I787b7hOVv1gsapKosQDL2EJ/qjD4g7QRVvYZJMOlypHFaJ4c1dzpSTdS+oSOF1gDu3Q7S8301TXEvVC8oW23NEs91X6xhC56Ji7monv+XzuK+di1tDapYAyYdwri6UsnqjjjFq/ICmsLIgXtRznzOnY50paBr6ttAkDVnfan7C3+zRrj/OCzScpAr2I6j1oZz7VEfax/Eq/aeUNnp0Jim2tM0Lup0uln9D8rSYZ/UqVpkexIaYOSQa0482L2hvlLybcwuopX01JmIIaNWH2BKx/V2BvYXRCzrVKz1rOhEDpLpVK9n7vYGT1ST8hGo0mxd0/1k9y6hJUJWppwkG/+PPS/Hzu2En27ygW1evGC0BOEsboDx4s6+KiOJn9IJ4dG1lUWf4TWQVy2taDmZ0BD+jFySnOg0f/x5OkdUQu8vTUTSE87N5QXqq0z95y+oJhXQcs6xOM4ih/MQbVeEroVj6dAU4K0vhMCYcKuZOGD+jF2Sx5D1FXyi1hcOIU1OVtUH8bDrhpjTQcx4EAQdzZUtcUrhqED+LvaJH1ypQdQXMXxpnIrITpUMQP4NaCKsxUHQFfJqCHeO+Skc05+VH6yNV10XUFRCwZ06ua1m5wduc/DqMybOvKlSIcMLYYwL0Ey9FUif5+P1hOaDPrferjlrBUIej1AeTny8bPxKaba0PAkSXOlRXgOh3D3AsCCbeM/Frs9Lfiveraw2iK+B45xWgCddasQfLwg+9oB84OUA1p+bqCsjeOZLWscyo9srBj9mAdFKpVhvqChjRDj88n8updH7ss0g5QD2nXVSOhVg7hunQBhSKPlL5US9IcYDUmoTKNwB++P3wTQm2UBo/6gV5vF+1puRkWOvjE4OkUs1OEj82n/zer14TdNAV8IHg3jg8pTxoAj/qBZnyrXpN105XlNVf4RKoT8VbxfITCj5fbfEjtSZvaxboBOBfMYQfyU9JdRp9YG82sfoL1PqgbSbGYuP46QWfhYmgng0ewYNBVTYIqSvxLjH8PAWfLWvVQ0hNMyxWgOknZ5jC+enCYYfSFry316RDJgeMbzl8GMrvDxPuTMcbky9Wf78qtobwrxz+DYy/MOX81OUFW1opxhHGNSFVoQXiRSk0DIufMeNqS4NZocbkp2VND9QFQM5BWSgVmV854DgMmRdhTF6rJtsPIPwCzrQSaUzjV/GCqHNgLD/yFT9M1cOVcZLED9UAdQ5s+QrqIh8B4XxQD4qw9vOT1oxTL4iNtFdb5p2GOHbAshwYKYqojuYneEHUOVjZ8oUsRLUFjnIIRCrXjOQ3lr8JLXWy5XuHUrsuHOOgjrLz0+cUK1UzVi1LBZgww2CeZ+ZXeB+TjTRvym8LwWSrTrE6+Zn8HzrSjH0eqF9RjT/UNz7NlZA0GWErD6FFuBURU9bFL6QSkqVV1qbXc83M2dMzwYVRChiD+PUCKyGZG2xz75nRfSv+rVwyiF8Yuy/8Rx6zVVjOJAbbiQ0Ks1sxIIL4BXejEBx9i3tPYo9t6U/leo3wM7n3LsFjlAW8McV6aIafyb13VczBYwYJq7QEaIqfxb13XYr9S8Hc32/kZ3DvHTvvoAThd9k0Ohe/NgskfXrce7flzt4RAeNBVstn43dxzXSax7133Mli9wd4YfIEDOIXvOr0lJ+wLFJ3RZxY6+53tMJ/BT8eZVNcSVKBNeW/i28JJFHN/HggSUuI4rRd734HD0lc0w550A/XFMjLjweSFAWNh+7Sp/ieREmFc8IxLTLz44GktfgJUcT0nKf6gSio3CkBpkV2ftS9/xBdEzxS+FmU7aV7s4ppUQM/VqsmrttGJ2t3JRyghXT+kAyXqxPTog5+zL2XnDislNiNRKc4Un44FrI8Lhaqh9+Xew/Gm2iDQDxmL0FRcGhJFpay3C8WqosfOgGihMDWFDtR6QgOzeeiq2unZ+Unt8uDx5rwnz3tRlis5Cca1Dy/Hj/Qsdj1IDmtZ/iy8JvnBwfuQ6HOOlZf5xoaHC9Ohn9D/JDI/nfX5fI9oKeeIbh5Rh5+uIbqINqdB/R3xlLrGZriBxPwoJzdbCOtUa5AqwRvih/wOGpKN19s6Mkqd+dpih9owOLwB8mdW7qySpXgTfEDJ/XkG5E0lakpFa8ED46/HOPzSfxAkJxOMpLDMfU0osUeod2HTt5STn6nq41ZdcebKYVD6xlCukdVRnkav6ocqWgBKvBtyXBaVmTt/gXrVdL4VSVeVcvRwhlbTxVa7GHqW+BomTR+1XcFvYF54x1bCSr1nPy5EXfQ1MhP2NXB2j+C5RD03AhLTKfxqxpoaIVJTbOMJajMc7pSKmZpCUsav+oLw7WOsk1pK0GlnpPQ7YSuckzmVz0Ssw1K/aixBJVWgrNuJ2IlZxI/KEcGC0WYfzsY9yKknhOGhJQSwCR+ECuDSI2vSN1Y9cFGeaWcRS3hTOIH5chQS+/f685WtUMTeMcUpV6Cm8QPXi2YGIbybWPVFfWctqOFuhzd43hN4ge2cFWxuWEYBuOqIUpjyomPsvlHcOHqfNLr348oTATpMGRlSj81u3n4gXh5qv5r3xDF2LnGsvHoLimbhx+km8B2Dtitx9h5SKsE32L/pvLw04slwJK/VLckTuoctcdRP2Xhhw3YwG4G9gPPsjSbB0uXWW1xKqmy8MNsKPy9dv/VNb7Ng+1wbV4tYM3CD4KAGD+q/rtbKRHT0EN/vC1gbuTgh5l2dFyr/+5bpFBj5PiOvJ4Tt7jR0svBD8U13APU+zH2pDZZ93hOVo8pAz+sQcMIPEif0+Cgqhk1z4l5vPT4DPzw86F0AO+o6huqNrHkOXWZucK/dzo/Z3UJHgC+IRQy6cYI85zo8iJpvqbzw0lU4AEw/5wMmW6MoOcUGDFM5ucYEq4bUP1/bbjGKaqeEz1UiTSm8nNCDyRuC0eQqyjGSOvUHqHLM1V7J5VfiXcjIwXcW5oD0tfsFz/HxPR6SeTnuAasThfkgTBX9J4LD0KvF9/K0zR+budZJtFBFYuzRe2ZMWb0/f5iEj9L+70Lx9QsxIexbHJnulAefiSsSbUQfGWtFXFAQw9bvCYhf0vabvNu6WjAqQ9kbOhhjLedhH5C+ZGvJ9WXwWEemWBp6GGMl55GDgL5sabiUqAdZH/heyxfQ4+oeHcYPzaMREULX+Q/75OpnpMxX4E5wCB+zOyXS6+wPtTgnYuekzXf5OQAA/jd09erGBIt4UIauOcUny+08+N6WJMaOKFMD3lPdmwO2+8hip/gzqgSDUebcZE33Cpiv4dgfn3BDtaXmWE3JmkTIAen7pBxvwdpHyEilZz68q7UadlXUoZDzbxR2MFzit7vYQ9yNBhWpbiBlLeo01EnVn5fdsRsMX+c2iae4iiz92NN/PhrVp1CXpscDIPWuZTOCN+uzjtY6h0d5y1pG0IGPVBFV6+ZNtRqFaa741nmPW6NUJNwn/xtmhq7GUWFo3GzbokWFyhWO/HuYN0Q0mmGLS94DMaNGuiXt7jys/tr71fifEASKIyCp/O6LHn9dQEhY8x1h6O2XnUQn2jzNeVbhu0I6UoAw1IBH4SNsbfwtMzyiJfgzUrdSxSRrPbQd1P1mTwqu4hHI+864ipH6OE2b6EC3VB7h16UeiYa2OQKcujhUr9cl7V7EbxMbQt0I75hsO0o1N1UTXNHOLVM2CSYVQS8xgwFfTfVwnIJKpnWI/MWiBS0tCd4O3O9f7yxUM+tLplv0k0OamkswrqaBaQLZWDQeZ724fYQ9poMGPP6/g1miwONnlzbsAqbTY6tr13tImtvb+c0Horl40BaC7E0vMEb1eQI2egXX1PYJugqRF9m7YlCTEqNXdBGv45uzzP7tlDkw/xB0Ba3l57cYFjAA5Ol0u6FcVC90fHzBF7moDvybe5sDPzu4ZgumTd5Vq3+b6znL8Vos5kVvZXqu25h3CvgAKckKZcrKt8hBaH2gVvPb1uqF4KBt4LaipAFq1s4g/3Nf044bLsS+BC64PiC2Yh1bLFu6dnvhbf8hcCNZ/g2B4/FfZlIL8aTIbmznLrPezM7ipg7Eqc46jpGBOzlCjB6QQAS5X7yn5WCvk91c8TFNZhMC9Sd4WhHMYwgOAiursyEfoyuGIc629QqrEt2Aq5nariIQ04ssDvw9FlwQ5Jo3BTBFI37jnxDCCbWpxoY7qeh4nRukw4PQu1sPYaLisHlaFFWn2L5OOqKseq5/xtOaRP6VuYUZBBuB3f9drvb7t8d1JyYfn7baDbojRxLrKMGIAFKfv19wydS91nZWPscmiEI+rLb1azbOUrDQf/huVSP/2Vf7xuG8ux1uXxfjtXt0LdIyDLUB+tefX5EOFbngDdwY8M6yjg/B+5zxDVsvZ8aQtgaCYZfOfWOkAL8Rrz/2rF5gL/fyj/78bbQ6yYUZEyj1IuupXYMsfj9Q/OIS0PgvoLHfAVv50E/xJsaZS84PQOuN7aPuGjA0cuEzswnaxaTwE3ZfhuG3ULgeLXY1B7+OxM63Wnx+Fm+fbkOH0/j91VvNulHllkZ8D9K4druej+27wAAAABJRU5ErkJggg==;fontColor=#FFFFFF;" vertex="1" parent="1">
          <mxGeometry x="890" y="210.00000000000003" width="120" height="121.62" as="geometry" />
        </mxCell>
        <mxCell id="O-CGYVzxH5412GR154It-6" style="edgeStyle=orthogonalEdgeStyle;rounded=0;orthogonalLoop=1;jettySize=auto;html=1;entryX=1;entryY=0.5;entryDx=0;entryDy=0;fillColor=#d5e8d4;strokeColor=#82b366;strokeWidth=5;" edge="1" parent="1" target="O-CGYVzxH5412GR154It-9">
          <mxGeometry relative="1" as="geometry">
            <mxPoint x="900" y="647" as="sourcePoint" />
          </mxGeometry>
        </mxCell>
        <mxCell id="O-CGYVzxH5412GR154It-8" style="edgeStyle=orthogonalEdgeStyle;rounded=0;orthogonalLoop=1;jettySize=auto;html=1;entryX=1;entryY=0.5;entryDx=0;entryDy=0;fillColor=#d5e8d4;strokeColor=#82b366;strokeWidth=5;" edge="1" parent="1" source="O-CGYVzxH5412GR154It-9" target="O-CGYVzxH5412GR154It-10">
          <mxGeometry relative="1" as="geometry" />
        </mxCell>
        <mxCell id="O-CGYVzxH5412GR154It-9" value="Read Contents of responses.txt" style="shape=image;verticalLabelPosition=bottom;labelBackgroundColor=none;verticalAlign=top;aspect=fixed;imageAspect=0;image=data:image/jpeg,/9j/4AAQSkZJRgABAQAAAQABAAD/2wCEAAkGBxAPDw0NDg4TDQ8NEg4ODw8NDw8QDQ8QFRYWGBURFRYYHyggGBomHhUXIz0hJy0rLi8uFx8zODMsNygtLisBCgoKDg0OGhAQGjcmHyUtLSsrMC0tLS0tLS0tKy0rLS0vLSstKystKy0tLS0tLS0tKystKy0tLSsrLS0rLS0tLf/AABEIAOsA1gMBEQACEQEDEQH/xAAbAAADAAMBAQAAAAAAAAAAAAAAAQIEBQcDBv/EAEsQAAIBAwADCwULCQgDAAAAAAABAgMEEQUhMQYSEzJBUVJhcYGRBxSTodEVFiIzQlNydLGz0xcjJDVUgpTB0mJzkqKjsuHxNENj/8QAGgEBAQADAQEAAAAAAAAAAAAAAAECBAUDBv/EADcRAQABAgIFCgYCAgIDAAAAAAABAgMEERIUITFRBRMyQVJhcYGR8BUiM6Gx0ULBNOFDciNT8f/aAAwDAQACEQMRAD8A7iAAAAAAAAB53FeFOMqlSShCOuUptKK72WImZyhJmIjOXymkt3tGDcbenKu+lJ8HT7srL8EbdGDqnpTk1K8ZTHRjN89d7t72fElCiuTg6ab8Z5NinCW437WvVi7k7tjVV9P3k+Nd1f3KkoLwjg9Ys24/i8pvXJ31MKpeVZcatUl9KpN/azLRpjqY6dU9bwlJva89pUJVGtkmuxtDIzesNI148W4qx+jVqR+xmOhTPUy06uP3ZdDdPfU+Ld1P32qn+9MwmxbnqZxeuR/JuLDyh3UGlWhTuI8urgqnitXqPKrCUTu2PanF1xv2vt9AbqLa9+DTk4VcZdGriNTrceSS7O/Bp3LFVvfubdu9Tc3b27PF7AAAAAAAAAAAAAAAAAAAmc1FOUnhRTbb2JLaxG03OS7pNOzvKreWqMG+Cp8iXTa6T9WcHXs2Ytx39bj3r03J7upp2z2eT0qW1SMd/KlOMOlKElDxawYxVE7IllNMxGcwx2zJilsCWyKlsCWwE2FSwCM3FqUW4yi1KMotqUWtjTWxkHVNwm6p3cXb12vOaSypalw0F8rHJJcq68rlS5uIs6E6UbnSw97TjRq3vrzWbIAAAAAAAAAAAAAAAAA0e7S4dOwuGts1Gn3TklL1NnvhozuQ8MTOVqXJ2dZyX33k/wBB0+DV7UipzlKSo75ZUIxeHJLpNp6+ZdbOfi7s56EeboYS1GWnPk+1azqetPU09hpN1zHd9oOFtVp1qMd5Sr77MFqjCosbOZNPZyYZ08LdmuMp3w5mKtRROcbpfJtmy1ktgS2BLYVLATAlsg99G38ratRuYcajJTx0l8qPY1ld5jVTFVM0yypq0ZiqOp3ylUU4xnF5jNKUXzprKZxpjJ2YWAAAAAAAAAAAAAAAAB8z5Qn+gv8AvKX2mzhPqNbF/TcwbOo5bpnk90hCpaKhn85bualHlcZScoy7NbXcczF0TFefF08JXE0aPB9Sarac98p2kYylQtYtOVPfVamPktrEY9uMvw5zfwdExE1NDGVxMxS+EbN1pJbAlsKTAlgS2QS2BLYV3bctLNhYN7fNrb7uJyLv1KvGXWs/Tp8IbQ83oAAAAAAAAAAAAAAAA+Z8of8A4L/vKX2s2cJ9RrYv6blzZ1HLelrdVKM1UpTlTnHZKDw+zrXUY1UxVGUsqappnOG3q7s7+Ud5w+95HKNOmpvvxq7sHjGGtxOeT2nE3JjLNoJzbblJuTk225NuTb2tt7We7webYEthSYEtgS2QJsCWwqWwO7blP1fo/wCrW33cTkXvqVeMutZ+nT4Q2p5vQAAAAAAAAAAAAAAAB85u9oTqWTjTpyqy4Sm97ThKcsZevC1mxhZiLmctfFRM29jm70Rdfslx/D1vYdLnKO1HrDm83X2Z9JS9D3X7Hcfw9b+knOUdqPWDm6+zPpKXoe7/AGO4/h639I5yjtR6wvN19mfSUvQ93+x3H8NW/pHOUdqPWDm6+zPpJPQ13+x3H8NW/pHOUdqPWDm6+zPpKJ6Iukm3aXCSTbbt6ySS2tve6hzlHGPU0K+E+ksBszYk2QS2BLYVLYEtgd43Kfq/R/1a2+7ici99Srxl1rP06fCG1PN6AAAAAAAAAAAmc1FOUmopa228JLrY3jTXW6yxpvDuFN//ACjKovGKa9Z704a5PU8KsTbjrYr3c2XSqeikZapcY63bL39WXSqeikNUuGt2y9/dj0qnopDVLhrdse/ux6VT0Uhqlw1u2Xv8selU9FIarcNatj3+2PSqeikNVuGtWy9/1j0qnopDVbhrVsvf/YdKp6KQ1W4a1beGkN3VjOjWpxlU306dSEc0pYy4tItOGuRMSlWJtzEw5WdFzktgS2FS2BLYEtgd53KPGjtHvmtbb7uJx78xFdUzxl1rG23T4QzfPYdfgcz4nY7/AEbPM1Dz2HX4D4nY7/Q5mo1eQ52u5ljlLDz1/aTmantCopbGn2G3bu0XIzonN5zTMb1HogAAADT7otP07KCcvh1Z54Oknhv+03yR6z2s2ZuT3PG9ei3He5npbTFe6lvq1RyWcxpx1Uo9kf5vL6zp27VNEfLDl3LtVyfmlr2ejBLYEtgS2BLZFS2BLYCbCpYEtkEtgJsKlsCWwJbAkg7xuX/Vtj9Vt/u4nFxf8/N18P0KfCEnxrqAAAIzaeU8PqLRXVRVpUzlJMROyWytLjfrXqktvX1n0eCxkX6cp6Ub/wBtO7b0J7mQbzyAGNpG8jb0qlepxacXJ87fJFdbeF3mVFM1VRTDGuqKaZqlx7SV9O4qzr1XmU3nqiuSK6kdmiiKI0Ycauua6tKWKzJilsCWwJbAlsipbATYEsKlgJgS2QS2FS2BLYEtgSyAA7xuX/Vtj9Vt/u4nFxf8/N18P0KfCEnxrqFkgRFLJFVRq7ySkuTb1rlPWxemzciuOr8dbGunSjJuk861yn18TExnDnbjKPi/KVetU6Fsn8Y5VZ9kdUU+9t/um7g6Ns1NLG17Ipc/Z0HPJsCWwJbAlsipbAlsCWFSwE2BLZBLYVLYEtgS2BLIAAA7zuaWNHWKepq1t89X5uJxcXP1J8XXw8fLT4Q8z4x1SyQLJFTkgWTFW30fUzTX9nMfYfUcmXdPDxHDZ+vs0b9OVbJOg8XLd3tzv76pHkowp0l4b9/7/UdTC05W473KxVWdzwfONmy10tgS2BLZFS2BLYEthSYEtgS2QS2BLYUmwJbAlsgQABk6NspXNajbQ41ecaaxyJ7ZdiWX3Eqq0YmZZU06UxTHW77XSp0t5HUklTiurGMeB81yhd0LFXfs9f8ATuWac6oazJ8s3yyQLJFLJAiKz9Ez1zj2P2/yO1yNc+aujwn9/wBNbExsiWyO+03F9OVt/dXU9ua1XHYpNL1JHZtRlREdzjXZzrme9gNno80tgS2RUtgS2AmwqWBLATZBLYEthUtgS2BLYCIAAS5NudSS2t8wHWPJ3uTlarzy5jva9SO9p03to03tb5pv1LVytHPxF7S+Wnc6GHs6PzVb30l9X30sLZH1vnPkOUcVF25o07o+8uvZo0Yzli5Oc9iyRU5IpECMVZWjZYqrrTXqz/I6HJVejiYjjEx/f9PHERnQ3J9W57hdae+lKXScn4vJ3I2Q4cznLzbKiWyKlsCWwJbCpYCYGdo3Ql1da7e3nUj08KNP/HLCfieddyijpSzot119GG8p+Tq/ksuVCHVKrUz/AJYM8dbt9721S53e/I35N775y29LW/DGt2+/35rqlzu9+RPybX3zlt6Wt+GTW7ff78zVLnd78i/Jrf8Azlt6Wt+GNbt9/vzNUud3vyJ+TS/+ctvS1vwxrdvv9+Zqtzu9+Rfkzv8A5y29LW/DGt2+/wB+Zqtzu9f9F+TO/wDnLb0tb8Ma3b7/AH5mq3O71/0yLXyX3Lf565o01z0lUqvwaiScXT1QyjCVdc+/s+x3P7jbSxaqpOtWj/7q+G4fQWyPbt6zUvYmqqNs5Q2bWHponZtls7u8zmMNnLLn7D5zG8o6UTbtbuuf1+3RtWcttTBycZslkgRFLJM1IgRFe1m/zlPtXrNnA1ZYmjxYXY+SW+Ps3LcJqx3spR6La8GdyJ2OHMZTk82wJbAlsCWwJYUJNtJJttpJJNtt7ElysDpG5TcJCCjXvoqpUeHGg8OlT+nyTl1bO3ac+9ipnZR6t+zhojbX6PsqlzCHwVrxqSjsXUca/j7Vqct89zoUWqpeDv3yRXezQnlarqp+715iOI8+l0V6yfFbnZheYjiPPpdFesfFbnZg5iOI8+l0V6x8VudmDmI4jz+XRXrHxa52YOYjiXn8uivWT4tc7MGrxxHuhLor1j4vc7MLq8cUy0hLkSXiYVcrXp3RELGHpY1WtKXGbf2eBoXcRcu9OrP8ej1popp3Q88ngzLJFIgRFIxUskCyRXpafGU/pR+02cHtxFHjDC70J8H0J9q5TiWnKW8urqGze1q2OzfNr1YOzbnOiJ7nGuRlXMd7AbM2CWwJbATCpYH3/k00ApZ0hVjnDlC3T2ZWqVX7Yrsl1Gji7v8ACPNu4W1/OfJ9veXHyI97/kfMcoY2YnmqJ8Z/r9utat/ylhHGbIAAAAAWSKWSBZIqckCyYqRFLJFIgRFLJAskUskVkaOWasOrL8Ezd5Mp0sVR5z9peV+crct+fZOW5N5QLbg7+q+StGnVXhvX64M6mFqztx3OXiqcrk975ts2GulsCWFSwBRbajFZlJpRXO3qSIO72dtG2t6dGGyjTjBdbSxl9r+04GKv6FFVz33O3aojZTDBPkpnPbLoggAABZARipZIpZIFkilkgRFIikQIilkxUskUskE5IrY6FhmU5dFY73/0dvkO3ndqr4Rl6/8AxqYur5YhuD6ZoPg/KlZfBtrlLiuVGf73wo93wZeJu4OrbNLSxlOyKnPGzfaCWwpMCWwMvQqzdWafLcWy/wBSJhX0J8JZUdKPGPy7jf8AE70fLcpT/wCCfGHes9JrT51uAAAWSBEUskUskCyRU5IpECMVBFLJBOSKWSKWSBZIpEVvtFUt7ST5Z/Cffs9WD6/kmxzeGiZ31bf19snMxNelX4bGYdNrsDTujVdW1a3erhI/Bk/kzWuMu5pGduvQqiphco06ZpcRr0pU5Tpzi4zg3CUXtUk8NHYiYmM4ceYmJyl5MolgS2QZmhH+l2X1i2+8iY3OhPhP4Z0dKPGPy7jf8TvR8tyn9Dzh3rPSa4+dbYARFLJBOTFSyRSyQIilkmakQIilkilkgWTFSyRSIERXraUOEnGHI9b6o8ps4TDziL1Nv18Ov3xYXa9CmZfSpH3MRlshxwUAHxu7jck7nN1bJecJJThqSrJbGn01s612I28Pf0Plq3NXEWNL5qd/5cwqwlCUoTi4Si8SjNOMovmaetM6ETnthzp2bHm2BLYGXoN/pdl9YtvvImNzoT4T+GdHTjxj8u53/E70fLcp/Q84d6z0mtyfONsiKWSKWSBZIpZIpECIpGKlkgWSKWSKnJAskUiKRBUIttJLLexLaZUUVV1RTTGcykzERnLfaOs+Cjl8eW3q6j6/k3A6tRnV0p393c5l+9zk7NzLOk8AAAAGu0roO2u1+kUI1GlhT1xqJcynHDS7zOi5VR0ZYV26a+lDQVvJzZSeVOvTXNGpBr/NFs94xdfc8JwlHe8/ya2fz1z/AI6P4Zdcr4R7801OjjP2/T0tPJ3aUqlKtGtcOVKdOrFSnR3rlCSkk8Q2ajGcVXMTGULGEoiYnOffk+n0hxO9HF5U+h5w6FjpNZk+cbhZIqckCyTNSMVOCy4rnaRlbpiqummeuYj7pM5RMtn7mQ55eK9h9D8Gsdqft+mnrNXCB7mQ6UvGPsJ8Gsdqft+l1qvhBe5cOlLxj7B8Fsdqft+jWq+ED3Lh0peMfYT4LY7U+sfo1qvhBe5UOlLxj7B8Esdqr1j9GtV8IHuVT6UvGPsJ8Esdqr1j9LrdfCC9yafSn4x9g+B2O1V6x+jW6+ED3Ip9KfjH2E+B2O1V6x+jW6+Ee/Me5FPpT8Y+wfAsP2qvWP0a3Xwj35nHRNPnk+1r+SMqeRMPG+Znzj+ognF19zKoW8IcSKXXyvvOhYwtmxGVunL8+u94V3Kq+lL1NhgAAAAAAAAAADF0jxO9HO5U+h5w9rHTavJ803SyRSyQIikRSTxrW1CKpic4Mnr51U6b8TY17EduWHNUcC87qdN+JNexHbleao4F53U6b8Sa/ie3K8zRwLzyp05eJNfxPbk5mjgXnlT5yXiTX8T25XmaOBeeVPnJeJNfxP8A7JOZt8G+tJN06betuMW3zvB9fg6pqw9FVU7Zpj8OZdiIrmI4vU2GAAAAAAAAAAAAAAAADF0j8X3o5vKv+P5w9rHTarJ803k5IpECMVBFLJBOSKWSKIpt4Sy3sS1timmap0aYzkmYjbL2lY1Us8G+5pvw2m3VydiojOaJ+34ic3nF+3nlmxmaMvYiD6Wy+KpfQj9h9zgf8a3/ANY/DkXfqVeMvY2nmAAAAAAAAAAAAAAAAxdJfF96Obyr/jz4w98P02oPmG8WSZqRAiKWSKWSBZMVLJFbjQ9FKG/5Z518yTxj1H1HI2Hpps8711Z+kTk5+KrmatHg2B2Wq1GmqCTjUWrfapdb5GfNcuYemmabtPXsn+vfg38JXMxNMtWcFuPpbP4ql9CH2I+5wP8AjW/+sfhyLvTq8ZextPMAAAAAAAAAAAAAAAB5XNPfwlHla1dvIa+Ks89Zqojr3eO+GdurRqiWiZ8bOze6ZGKlkgWSKWSKnJAskUiK2+h7lb3gm8NNuPWnrPpeRcXTNvmKp2xu74nb6tDFW5z04bM7rTaXTFypNQi8qOW2tmeY+W5ZxdN2qLVE5xTv8f8ATo4W3NMaU9bBpU3OUYLbJ4/5OTZtVXa4t0752e/De2aqopiZl9PGOEkti1I+9ppimIiOpxpnOczMkAAAAAAAAAAAAAAAAAGvv7LOZwWv5UefrXWcTlHk6a5m7ajb1xx747/z479qxey+Wpq2fOy3U5IpZIpZIpZMQiKQAB6OvNrDnJrmcng9pxF6Y0ZrnLxljFFMTnkiEW2kllvYltPOiiquqKaYzmVmYiM5bzR1jwa30tc34RXMfWcm8navGnX0p+0cP37z51+/p7I3M46rWAAAAAAAAAAAAAAAAAAAAY9xZwqa2sPpLU/+TSxOAs4jbVGU8Y3/AO/N6271VG5rq2i5ritTXgziXuRr1O23OlHpP6+7bpxVM79jDq0ZR40Wutp48TmXbF2106Zjy2eu5sU101bpeWTwzZggQATMe1O1qS4sG+vGF4s2rWDxFzoUT+PvOUMKrtFO+WbQ0RJ8eSiuaOt+PIdSxyHcnbdqy8Ns/r8tavFxHRhsre2hTXwVjne2T7zu4fCWcPGVuPPr9WpXdqr3y9jZeYAAAAAAAAAAAAAAAAAAAAAAAAA850IS2wi+2KZ4V4azX06InxiGcXKo3S83Y0vm0eM8nYWf+OGXP3OIVlS+bj3rJY5Pwsf8cehz1zi9YUox4sVHsSRsUWbdvoUxHhGTCa6p3ys9GIAAAAAAAAAAAAAAAAAAAAAAAAAAAAAAAAAAAAAAAAAAAAAAAAAAAAAAAAAAAAyAt8BO/AXCAHCALhADhAHwgBwgFb8B74B5AAAAAAAAAAAAAAAAAAABMCGBLAhgJsBALIBkBgNANAWgKQFoBgAAAAAAAAf/2Q==;fontColor=#FFFFFF;" vertex="1" parent="1">
          <mxGeometry x="487" y="587" width="109.31" height="120" as="geometry" />
        </mxCell>
        <mxCell id="O-CGYVzxH5412GR154It-10" value="Summarise Responses &#xa;Using OpenAI" style="shape=image;verticalLabelPosition=bottom;labelBackgroundColor=none;verticalAlign=top;aspect=fixed;imageAspect=0;image=data:image/png,iVBORw0KGgoAAAANSUhEUgAAAN8AAADiCAMAAAD5w+JtAAAAflBMVEX///8AAADPz8/n5+fCwsLGxsZ/f38UFBT09PTW1tbb29v7+/v8/Pzv7+/4+Pje3t6YmJg1NTW8vLysrKyhoaFcXFxsbGzp6em2trZGRkZ1dXVlZWUaGhpSUlKIiIh9fX2QkJA/Pz8jIyMxMTEqKipPT0+kpKQNDQ0YGBhYWFgY7+T7AAAQHklEQVR4nNVd2ULqShAUEBSPILsiHk1Q8fr/P3hV1tRU9/QsIZ56hGyVzPQ+PRcXdeH25nLWW72X64/Wx9Xrcv4yemgParvbedGZPq5bFPNRu+mHS0X3hVM74HP6737H9qOH3BbL6Z+mnzQCf2ZXJnY/eLxr+nEDMejZyW0/4r80Fa99s46h/GcYFhHsvvG30/STW3AZye4bz00/vBfDeQK9L/zyQdpNY/eFXtMUNIRKTYb1fdMsJAzHGeh94bJpIhx3edh9YdQ0FQbj1PuwHLRomoyLB/2J56PJzd6SHnba0xd9LH82yoVgqjzsakoVd/dZ+Zbv5yagQ6b3OVFOu3v2Exzc9dvtbrt/N7g9AxGOifSUz17vbiIN1Pl1d/a4rP42XowuG1AffeERR6Y33i7Fj8ix2pzXUB3wx3gxu62XJqF6iqvnfp2MqqDhlXGQyyrPQ5ni6EyRjRW7e6iKvnsKZ9hancMap6LzJvw6iwiCrbKbn1AVHXbXqIBRnFtc1jwRiXiPs64ipuAW8zrn4cy930vMdTzmnY767HGiGmIc1P5rCr1W67UuhehGIx7DLzKgEjgMm/zcLpjhMg+/yCidXdyN/SjxLm/BlxBN11D8l98wdV3aUFF257yhBGTX9o5uCIycDA0JmPGqN5ptNrNRb+UVQporFoE2Xj9Q8RHdUsGy6MJ4uL8sSu2MaT5yF0R4Bp3d1fNLi0vBCBpOFHGbU4w6ui9keHTeNXLlg3ry7VSM3mT8gmgvlvZTb9VA8NxgUvb/CifnC57ile2GrhaMar0bHcebJT8/wnWhQN3+13pi+01htw5weIRMVRZzu/OAE8j4+QZqgilQPtA86ms4myqGE6K3xrZzVSfvZRj6KI6K+kaECXyCCf8AusTbQfWCljFFBsOSXClez3dEwWc4ua/F5D9iBR+zga7jLtWWhLJlTFyrAZYEF5X4H1HpCzUO6xV7qhe0iHzhW2zcC4aP0I787b7hOVv1gsapKosQDL2EJ/qjD4g7QRVvYZJMOlypHFaJ4c1dzpSTdS+oSOF1gDu3Q7S8301TXEvVC8oW23NEs91X6xhC56Ji7monv+XzuK+di1tDapYAyYdwri6UsnqjjjFq/ICmsLIgXtRznzOnY50paBr6ttAkDVnfan7C3+zRrj/OCzScpAr2I6j1oZz7VEfax/Eq/aeUNnp0Jim2tM0Lup0uln9D8rSYZ/UqVpkexIaYOSQa0482L2hvlLybcwuopX01JmIIaNWH2BKx/V2BvYXRCzrVKz1rOhEDpLpVK9n7vYGT1ST8hGo0mxd0/1k9y6hJUJWppwkG/+PPS/Hzu2En27ygW1evGC0BOEsboDx4s6+KiOJn9IJ4dG1lUWf4TWQVy2taDmZ0BD+jFySnOg0f/x5OkdUQu8vTUTSE87N5QXqq0z95y+oJhXQcs6xOM4ih/MQbVeEroVj6dAU4K0vhMCYcKuZOGD+jF2Sx5D1FXyi1hcOIU1OVtUH8bDrhpjTQcx4EAQdzZUtcUrhqED+LvaJH1ypQdQXMXxpnIrITpUMQP4NaCKsxUHQFfJqCHeO+Skc05+VH6yNV10XUFRCwZ06ua1m5wduc/DqMybOvKlSIcMLYYwL0Ey9FUif5+P1hOaDPrferjlrBUIej1AeTny8bPxKaba0PAkSXOlRXgOh3D3AsCCbeM/Frs9Lfiveraw2iK+B45xWgCddasQfLwg+9oB84OUA1p+bqCsjeOZLWscyo9srBj9mAdFKpVhvqChjRDj88n8updH7ss0g5QD2nXVSOhVg7hunQBhSKPlL5US9IcYDUmoTKNwB++P3wTQm2UBo/6gV5vF+1puRkWOvjE4OkUs1OEj82n/zer14TdNAV8IHg3jg8pTxoAj/qBZnyrXpN105XlNVf4RKoT8VbxfITCj5fbfEjtSZvaxboBOBfMYQfyU9JdRp9YG82sfoL1PqgbSbGYuP46QWfhYmgng0ewYNBVTYIqSvxLjH8PAWfLWvVQ0hNMyxWgOknZ5jC+enCYYfSFry316RDJgeMbzl8GMrvDxPuTMcbky9Wf78qtobwrxz+DYy/MOX81OUFW1opxhHGNSFVoQXiRSk0DIufMeNqS4NZocbkp2VND9QFQM5BWSgVmV854DgMmRdhTF6rJtsPIPwCzrQSaUzjV/GCqHNgLD/yFT9M1cOVcZLED9UAdQ5s+QrqIh8B4XxQD4qw9vOT1oxTL4iNtFdb5p2GOHbAshwYKYqojuYneEHUOVjZ8oUsRLUFjnIIRCrXjOQ3lr8JLXWy5XuHUrsuHOOgjrLz0+cUK1UzVi1LBZgww2CeZ+ZXeB+TjTRvym8LwWSrTrE6+Zn8HzrSjH0eqF9RjT/UNz7NlZA0GWErD6FFuBURU9bFL6QSkqVV1qbXc83M2dMzwYVRChiD+PUCKyGZG2xz75nRfSv+rVwyiF8Yuy/8Rx6zVVjOJAbbiQ0Ks1sxIIL4BXejEBx9i3tPYo9t6U/leo3wM7n3LsFjlAW8McV6aIafyb13VczBYwYJq7QEaIqfxb13XYr9S8Hc32/kZ3DvHTvvoAThd9k0Ohe/NgskfXrce7flzt4RAeNBVstn43dxzXSax7133Mli9wd4YfIEDOIXvOr0lJ+wLFJ3RZxY6+53tMJ/BT8eZVNcSVKBNeW/i28JJFHN/HggSUuI4rRd734HD0lc0w550A/XFMjLjweSFAWNh+7Sp/ieREmFc8IxLTLz44GktfgJUcT0nKf6gSio3CkBpkV2ftS9/xBdEzxS+FmU7aV7s4ppUQM/VqsmrttGJ2t3JRyghXT+kAyXqxPTog5+zL2XnDislNiNRKc4Un44FrI8Lhaqh9+Xew/Gm2iDQDxmL0FRcGhJFpay3C8WqosfOgGihMDWFDtR6QgOzeeiq2unZ+Unt8uDx5rwnz3tRlis5Cca1Dy/Hj/Qsdj1IDmtZ/iy8JvnBwfuQ6HOOlZf5xoaHC9Ohn9D/JDI/nfX5fI9oKeeIbh5Rh5+uIbqINqdB/R3xlLrGZriBxPwoJzdbCOtUa5AqwRvih/wOGpKN19s6Mkqd+dpih9owOLwB8mdW7qySpXgTfEDJ/XkG5E0lakpFa8ED46/HOPzSfxAkJxOMpLDMfU0osUeod2HTt5STn6nq41ZdcebKYVD6xlCukdVRnkav6ocqWgBKvBtyXBaVmTt/gXrVdL4VSVeVcvRwhlbTxVa7GHqW+BomTR+1XcFvYF54x1bCSr1nPy5EXfQ1MhP2NXB2j+C5RD03AhLTKfxqxpoaIVJTbOMJajMc7pSKmZpCUsav+oLw7WOsk1pK0GlnpPQ7YSuckzmVz0Ssw1K/aixBJVWgrNuJ2IlZxI/KEcGC0WYfzsY9yKknhOGhJQSwCR+ECuDSI2vSN1Y9cFGeaWcRS3hTOIH5chQS+/f685WtUMTeMcUpV6Cm8QPXi2YGIbybWPVFfWctqOFuhzd43hN4ge2cFWxuWEYBuOqIUpjyomPsvlHcOHqfNLr348oTATpMGRlSj81u3n4gXh5qv5r3xDF2LnGsvHoLimbhx+km8B2Dtitx9h5SKsE32L/pvLw04slwJK/VLckTuoctcdRP2Xhhw3YwG4G9gPPsjSbB0uXWW1xKqmy8MNsKPy9dv/VNb7Ng+1wbV4tYM3CD4KAGD+q/rtbKRHT0EN/vC1gbuTgh5l2dFyr/+5bpFBj5PiOvJ4Tt7jR0svBD8U13APU+zH2pDZZ93hOVo8pAz+sQcMIPEif0+Cgqhk1z4l5vPT4DPzw86F0AO+o6huqNrHkOXWZucK/dzo/Z3UJHgC+IRQy6cYI85zo8iJpvqbzw0lU4AEw/5wMmW6MoOcUGDFM5ucYEq4bUP1/bbjGKaqeEz1UiTSm8nNCDyRuC0eQqyjGSOvUHqHLM1V7J5VfiXcjIwXcW5oD0tfsFz/HxPR6SeTnuAasThfkgTBX9J4LD0KvF9/K0zR+budZJtFBFYuzRe2ZMWb0/f5iEj9L+70Lx9QsxIexbHJnulAefiSsSbUQfGWtFXFAQw9bvCYhf0vabvNu6WjAqQ9kbOhhjLedhH5C+ZGvJ9WXwWEemWBp6GGMl55GDgL5sabiUqAdZH/heyxfQ4+oeHcYPzaMREULX+Q/75OpnpMxX4E5wCB+zOyXS6+wPtTgnYuekzXf5OQAA/jd09erGBIt4UIauOcUny+08+N6WJMaOKFMD3lPdmwO2+8hip/gzqgSDUebcZE33Cpiv4dgfn3BDtaXmWE3JmkTIAen7pBxvwdpHyEilZz68q7UadlXUoZDzbxR2MFzit7vYQ9yNBhWpbiBlLeo01EnVn5fdsRsMX+c2iae4iiz92NN/PhrVp1CXpscDIPWuZTOCN+uzjtY6h0d5y1pG0IGPVBFV6+ZNtRqFaa741nmPW6NUJNwn/xtmhq7GUWFo3GzbokWFyhWO/HuYN0Q0mmGLS94DMaNGuiXt7jys/tr71fifEASKIyCp/O6LHn9dQEhY8x1h6O2XnUQn2jzNeVbhu0I6UoAw1IBH4SNsbfwtMzyiJfgzUrdSxSRrPbQd1P1mTwqu4hHI+864ipH6OE2b6EC3VB7h16UeiYa2OQKcujhUr9cl7V7EbxMbQt0I75hsO0o1N1UTXNHOLVM2CSYVQS8xgwFfTfVwnIJKpnWI/MWiBS0tCd4O3O9f7yxUM+tLplv0k0OamkswrqaBaQLZWDQeZ724fYQ9poMGPP6/g1miwONnlzbsAqbTY6tr13tImtvb+c0Horl40BaC7E0vMEb1eQI2egXX1PYJugqRF9m7YlCTEqNXdBGv45uzzP7tlDkw/xB0Ba3l57cYFjAA5Ol0u6FcVC90fHzBF7moDvybe5sDPzu4ZgumTd5Vq3+b6znL8Vos5kVvZXqu25h3CvgAKckKZcrKt8hBaH2gVvPb1uqF4KBt4LaipAFq1s4g/3Nf044bLsS+BC64PiC2Yh1bLFu6dnvhbf8hcCNZ/g2B4/FfZlIL8aTIbmznLrPezM7ipg7Eqc46jpGBOzlCjB6QQAS5X7yn5WCvk91c8TFNZhMC9Sd4WhHMYwgOAiursyEfoyuGIc629QqrEt2Aq5nariIQ04ssDvw9FlwQ5Jo3BTBFI37jnxDCCbWpxoY7qeh4nRukw4PQu1sPYaLisHlaFFWn2L5OOqKseq5/xtOaRP6VuYUZBBuB3f9drvb7t8d1JyYfn7baDbojRxLrKMGIAFKfv19wydS91nZWPscmiEI+rLb1azbOUrDQf/huVSP/2Vf7xuG8ux1uXxfjtXt0LdIyDLUB+tefX5EOFbngDdwY8M6yjg/B+5zxDVsvZ8aQtgaCYZfOfWOkAL8Rrz/2rF5gL/fyj/78bbQ6yYUZEyj1IuupXYMsfj9Q/OIS0PgvoLHfAVv50E/xJsaZS84PQOuN7aPuGjA0cuEzswnaxaTwE3ZfhuG3ULgeLXY1B7+OxM63Wnx+Fm+fbkOH0/j91VvNulHllkZ8D9K4druej+27wAAAABJRU5ErkJggg==;fontColor=#FFFFFF;" vertex="1" parent="1">
          <mxGeometry x="120" y="587" width="120" height="121.62" as="geometry" />
        </mxCell>
        <mxCell id="O-CGYVzxH5412GR154It-12" style="edgeStyle=orthogonalEdgeStyle;rounded=0;orthogonalLoop=1;jettySize=auto;html=1;entryX=0.417;entryY=-0.017;entryDx=0;entryDy=0;entryPerimeter=0;fillColor=#d5e8d4;strokeColor=#82b366;strokeWidth=5;" edge="1" parent="1">
          <mxGeometry relative="1" as="geometry">
            <mxPoint x="180" y="750" as="sourcePoint" />
            <mxPoint x="180.03999999999996" y="917.96" as="targetPoint" />
          </mxGeometry>
        </mxCell>
        <mxCell id="O-CGYVzxH5412GR154It-13" style="edgeStyle=orthogonalEdgeStyle;rounded=0;orthogonalLoop=1;jettySize=auto;html=1;entryX=0.417;entryY=0.008;entryDx=0;entryDy=0;entryPerimeter=0;fillColor=#d5e8d4;strokeColor=#82b366;strokeWidth=5;" edge="1" parent="1">
          <mxGeometry relative="1" as="geometry">
            <mxPoint x="950" y="370" as="sourcePoint" />
            <mxPoint x="950.04" y="587.96" as="targetPoint" />
          </mxGeometry>
        </mxCell>
        <mxCell id="O-CGYVzxH5412GR154It-16" value="Text" style="text;html=1;align=center;verticalAlign=middle;resizable=0;points=[];autosize=1;strokeColor=none;fillColor=none;" vertex="1" parent="1">
          <mxGeometry x="175" y="1048" width="50" height="30" as="geometry" />
        </mxCell>
        <mxCell id="O-CGYVzxH5412GR154It-17" value="&lt;span style=&quot;color: rgb(255, 255, 255);&quot;&gt;Each Chunk response&lt;/span&gt;&lt;br style=&quot;color: rgb(255, 255, 255);&quot;&gt;&lt;span style=&quot;color: rgb(255, 255, 255);&quot;&gt;saved to responses.txt&lt;/span&gt;" style="verticalLabelPosition=bottom;html=1;verticalAlign=top;align=center;strokeColor=none;fillColor=#00BEF2;shape=mxgraph.azure.file;pointerEvents=1;" vertex="1" parent="1">
          <mxGeometry x="900" y="587" width="109" height="120" as="geometry" />
        </mxCell>
        <mxCell id="O-CGYVzxH5412GR154It-18" value="&lt;span style=&quot;color: rgb(255, 255, 255);&quot;&gt;Summarise Teams Transcript&lt;/span&gt;&lt;br style=&quot;color: rgb(255, 255, 255);&quot;&gt;&lt;span style=&quot;color: rgb(255, 255, 255);&quot;&gt;to final_summary.txt&lt;/span&gt;" style="verticalLabelPosition=bottom;html=1;verticalAlign=top;align=center;strokeColor=none;fillColor=#00BEF2;shape=mxgraph.azure.file;pointerEvents=1;" vertex="1" parent="1">
          <mxGeometry x="125.5" y="920" width="109" height="120" as="geometry" />
        </mxCell>
        <mxCell id="O-CGYVzxH5412GR154It-19" value="&lt;span style=&quot;color: rgb(255, 255, 255);&quot;&gt;Microsoft Teams&lt;/span&gt;&lt;br style=&quot;color: rgb(255, 255, 255);&quot;&gt;&lt;span style=&quot;color: rgb(255, 255, 255);&quot;&gt;Transcript&lt;/span&gt;" style="shape=image;html=1;verticalAlign=top;verticalLabelPosition=bottom;labelBackgroundColor=none;imageAspect=0;aspect=fixed;image=https://cdn0.iconfinder.com/data/icons/logos-microsoft-office-365/128/Microsoft_Office-10-128.png" vertex="1" parent="1">
          <mxGeometry x="125.5" y="210" width="120" height="120" as="geometry" />
        </mxCell>
      </root>
    </mxGraphModel>
  </diagram>
</mxfile>
